<?xml version="1.0" encoding="UTF-8"?>
<svg xmlns="http://www.w3.org/2000/svg" width="1060" height="650" viewBox="0 0 1060 650" font-family="Helvetica, Arial, sans-serif">
<defs><marker id="arr" markerWidth="10" markerHeight="10" refX="8" refY="3" orient="auto" markerUnits="strokeWidth"><path d="M0,0 L8,3 L0,6 z" fill="#333333"/></marker></defs>
<rect x="0" y="0" width="1060" height="650" fill="white"/>
<text x="530" y="28" text-anchor="middle" font-size="16" font-weight="bold" fill="#222">Apartado 10 - Esbozo de la arquitectura</text>
<ellipse cx="100" cy="60" rx="60" ry="25" fill="#f8cecc" stroke="#b85450" stroke-width="1.5"/>
<text x="100" y="66" text-anchor="middle" font-size="12" fill="#222">Internet</text>
<rect x="195" y="37" width="150" height="46" rx="8" fill="#f5f5f5" stroke="#666666" stroke-width="1.5"/>
<text x="270" y="58.5" text-anchor="middle" font-size="12" fill="#222">Router de salida</text>
<text x="270" y="73.5" text-anchor="middle" font-size="12" fill="#222">a Internet</text>
<rect x="380" y="37" width="165" height="46" rx="8" fill="#f8cecc" stroke="#b85450" stroke-width="1.5"/>
<text x="462.5" y="66" text-anchor="middle" font-size="12" fill="#222">FW01 - Firewall + VPN</text>
<ellipse cx="105" cy="180" rx="75" ry="30" fill="#f5f5f5" stroke="#666666" stroke-width="1.5"/>
<text x="105" y="178.5" text-anchor="middle" font-size="12" fill="#222">Usuarios</text>
<text x="105" y="193.5" text-anchor="middle" font-size="12" fill="#222">Externos</text>
<ellipse cx="105" cy="280" rx="75" ry="30" fill="#f5f5f5" stroke="#666666" stroke-width="1.5"/>
<text x="105" y="278.5" text-anchor="middle" font-size="12" fill="#222">Usuarios</text>
<text x="105" y="293.5" text-anchor="middle" font-size="12" fill="#222">Internos</text>
<ellipse cx="105" cy="500" rx="75" ry="30" fill="#d5e8d4" stroke="#82b366" stroke-width="1.5"/>
<text x="105" y="498.5" text-anchor="middle" font-size="12" fill="#222">Administracion</text>
<text x="105" y="513.5" text-anchor="middle" font-size="12" fill="#222">/ DevOps</text>
<rect x="220" y="130" width="300" height="215" rx="0" fill="none" stroke="#d79b00" stroke-width="1.5" stroke-dasharray="6 4"/>
<text x="370" y="148" text-anchor="middle" font-size="12" font-weight="bold" fill="#333">Zona DMZ</text>
<rect x="560" y="130" width="470" height="330" rx="0" fill="none" stroke="#6c8ebf" stroke-width="1.5" stroke-dasharray="6 4"/>
<text x="795" y="148" text-anchor="middle" font-size="12" font-weight="bold" fill="#333">Red interna (backend)</text>
<rect x="220" y="455" width="300" height="130" rx="0" fill="none" stroke="#82b366" stroke-width="1.5" stroke-dasharray="6 4"/>
<text x="370" y="473" text-anchor="middle" font-size="12" font-weight="bold" fill="#333">Red de administracion</text>
<rect x="240" y="175" width="260" height="45" rx="8" fill="#ffe6cc" stroke="#d79b00" stroke-width="1.5"/>
<text x="370" y="203.5" text-anchor="middle" font-size="12" fill="#222">LB01 - Balanceador / Proxy inverso</text>
<rect x="240" y="240" width="120" height="50" rx="8" fill="#ffe6cc" stroke="#d79b00" stroke-width="1.5"/>
<text x="300" y="271" text-anchor="middle" font-size="12" fill="#222">WEB01</text>
<rect x="380" y="240" width="120" height="50" rx="8" fill="#ffe6cc" stroke="#d79b00" stroke-width="1.5"/>
<text x="440" y="271" text-anchor="middle" font-size="12" fill="#222">WEB02</text>
<rect x="585" y="170" width="200" height="42" rx="8" fill="#dae8fc" stroke="#6c8ebf" stroke-width="1.5"/>
<text x="685" y="197" text-anchor="middle" font-size="12" fill="#222">DC1 (FreeIPA/DNS)</text>
<rect x="805" y="170" width="200" height="42" rx="8" fill="#dae8fc" stroke="#6c8ebf" stroke-width="1.5"/>
<text x="905" y="197" text-anchor="middle" font-size="12" fill="#222">DC2 (FreeIPA/DNS)</text>
<rect x="585" y="232" width="420" height="40" rx="8" fill="#dae8fc" stroke="#6c8ebf" stroke-width="1.5"/>
<text x="795" y="258" text-anchor="middle" font-size="12" font-weight="bold" fill="#222">HAProxy (BD)</text>
<rect x="585" y="295" width="200" height="42" rx="8" fill="#dae8fc" stroke="#6c8ebf" stroke-width="1.5"/>
<text x="685" y="322" text-anchor="middle" font-size="12" fill="#222">SQL01</text>
<rect x="805" y="295" width="200" height="42" rx="8" fill="#dae8fc" stroke="#6c8ebf" stroke-width="1.5"/>
<text x="905" y="322" text-anchor="middle" font-size="12" fill="#222">SQL02</text>
<rect x="585" y="357" width="420" height="42" rx="8" fill="#dae8fc" stroke="#6c8ebf" stroke-width="1.5"/>
<text x="795" y="384" text-anchor="middle" font-size="12" fill="#222">BKP01 - Servidor de backup</text>
<rect x="245" y="495" width="250" height="55" rx="8" fill="#d5e8d4" stroke="#82b366" stroke-width="1.5"/>
<text x="370" y="528.5" text-anchor="middle" font-size="12" fill="#222">Gestion: VPN + SSH</text>
<line x1="160" y1="60" x2="195" y2="60" stroke="#333333" stroke-width="1.6" marker-end="url(#arr)"/>
<line x1="345" y1="60" x2="380" y2="60" stroke="#333333" stroke-width="1.6" marker-end="url(#arr)"/>
<rect x="352" y="49" width="21" height="16" fill="white" stroke="none" opacity="0.9"/>
<text x="362.5" y="60" text-anchor="middle" font-size="11" fill="#333333">443</text>
<line x1="180" y1="154.825" x2="393.979" y2="83" stroke="#333333" stroke-width="1.6" marker-end="url(#arr)"/>
<rect x="255.49" y="107.913" width="63" height="16" fill="white" stroke="none" opacity="0.9"/>
<text x="286.99" y="118.913" text-anchor="middle" font-size="11" fill="#333333">HTTPS 443</text>
<line x1="180" y1="256.651" x2="297.727" y2="220" stroke="#333333" stroke-width="1.6" marker-end="url(#arr)"/>
<rect x="207.364" y="227.325" width="63" height="16" fill="white" stroke="none" opacity="0.9"/>
<text x="238.864" y="238.325" text-anchor="middle" font-size="11" fill="#333333">HTTPS 443</text>
<line x1="447.027" y1="83" x2="385.136" y2="175" stroke="#333333" stroke-width="1.6" marker-end="url(#arr)"/>
<rect x="405.582" y="118" width="21" height="16" fill="white" stroke="none" opacity="0.9"/>
<text x="416.082" y="129" text-anchor="middle" font-size="11" fill="#333333">443</text>
<line x1="346.667" y1="220" x2="325.926" y2="240" stroke="#333333" stroke-width="1.6" marker-end="url(#arr)"/>
<rect x="325.796" y="219" width="21" height="16" fill="white" stroke="none" opacity="0.9"/>
<text x="336.296" y="230" text-anchor="middle" font-size="11" fill="#333333">443</text>
<line x1="393.333" y1="220" x2="414.074" y2="240" stroke="#333333" stroke-width="1.6" marker-end="url(#arr)"/>
<rect x="393.204" y="219" width="21" height="16" fill="white" stroke="none" opacity="0.9"/>
<text x="403.704" y="230" text-anchor="middle" font-size="11" fill="#333333">443</text>
<line x1="500" y1="262.803" x2="585" y2="259.69" stroke="#333333" stroke-width="1.6" marker-end="url(#arr)"/>
<rect x="528.5" y="250.246" width="28" height="16" fill="white" stroke="none" opacity="0.9"/>
<text x="542.5" y="261.246" text-anchor="middle" font-size="11" fill="#333333">5432</text>
<line x1="500" y1="255.452" x2="805" y2="206.914" stroke="#333333" stroke-width="1.6" marker-end="url(#arr)"/>
<rect x="621" y="220.183" width="63" height="16" fill="white" stroke="none" opacity="0.9"/>
<text x="652.5" y="231.183" text-anchor="middle" font-size="11" fill="#333333">LDAPS 636</text>
<line x1="760.625" y1="272" x2="721.094" y2="295" stroke="#333333" stroke-width="1.6" marker-end="url(#arr)"/>
<line x1="785" y1="316" x2="805" y2="316" stroke="#333333" stroke-width="1.6" marker-end="url(#arr)"/>
<line x1="805" y1="316" x2="785" y2="316" stroke="#333333" stroke-width="1.6" marker-end="url(#arr)"/>
<rect x="760" y="305" width="70" height="16" fill="white" stroke="none" opacity="0.9"/>
<text x="795" y="316" text-anchor="middle" font-size="11" fill="#333333">repl. 5432</text>
<line x1="722.258" y1="337" x2="757.742" y2="357" stroke="#333333" stroke-width="1.6" marker-end="url(#arr)"/>
<rect x="712" y="336" width="56" height="16" fill="white" stroke="none" opacity="0.9"/>
<text x="740" y="347" text-anchor="middle" font-size="11" fill="#333333">NFS 2049</text>
<line x1="180" y1="506.368" x2="245" y2="511.887" stroke="#333333" stroke-width="1.6" marker-end="url(#arr)"/>
<rect x="202" y="498.127" width="21" height="16" fill="white" stroke="none" opacity="0.9"/>
<text x="212.5" y="509.127" text-anchor="middle" font-size="11" fill="#333333">VPN</text>
<line x1="362.524" y1="495" x2="306.796" y2="290" stroke="#b85450" stroke-width="1.6" marker-end="url(#arr)" stroke-dasharray="6 4"/>
<rect x="313.66" y="381.5" width="42" height="16" fill="white" stroke="none" opacity="0.9"/>
<text x="334.66" y="392.5" text-anchor="middle" font-size="11" fill="#b85450">SSH 22</text>
</svg>