<?xml version="1.0" encoding="UTF-8"?>
<svg xmlns="http://www.w3.org/2000/svg" width="980" height="620" viewBox="0 0 980 620" font-family="Helvetica, Arial, sans-serif">
<defs><marker id="arr" markerWidth="10" markerHeight="10" refX="8" refY="3" orient="auto" markerUnits="strokeWidth"><path d="M0,0 L8,3 L0,6 z" fill="#333333"/></marker></defs>
<rect x="0" y="0" width="980" height="620" fill="white"/>
<text x="490" y="28" text-anchor="middle" font-size="16" font-weight="bold" fill="#222">Apartado 10 - Esbozo de la arquitectura</text>
<ellipse cx="125" cy="100" rx="65" ry="30" fill="#f8cecc" stroke="#b85450" stroke-width="1.5"/>
<text x="125" y="106" text-anchor="middle" font-size="12" fill="#222">Internet</text>
<rect x="790" y="70" width="140" height="60" rx="8" fill="#f5f5f5" stroke="#666666" stroke-width="1.5"/>
<text x="860" y="98.5" text-anchor="middle" font-size="12" fill="#222">Usuarios internos</text>
<text x="860" y="113.5" text-anchor="middle" font-size="12" fill="#222">(VLAN 20)</text>
<rect x="410" y="70" width="150" height="55" rx="8" fill="#f8cecc" stroke="#b85450" stroke-width="1.5"/>
<text x="485" y="96" text-anchor="middle" font-size="12" fill="#222">FW01</text>
<text x="485" y="111" text-anchor="middle" font-size="12" fill="#222">Firewall + VPN</text>
<rect x="400" y="175" width="170" height="55" rx="8" fill="#ffe6cc" stroke="#d79b00" stroke-width="1.5"/>
<text x="485" y="201" text-anchor="middle" font-size="12" fill="#222">LB01 - Balanceador</text>
<text x="485" y="216" text-anchor="middle" font-size="12" fill="#222">VIP 10.10.40.5</text>
<rect x="300" y="285" width="130" height="50" rx="8" fill="#ffe6cc" stroke="#d79b00" stroke-width="1.5"/>
<text x="365" y="308.5" text-anchor="middle" font-size="12" fill="#222">WEB01</text>
<text x="365" y="323.5" text-anchor="middle" font-size="12" fill="#222">10.10.40.11</text>
<rect x="540" y="285" width="130" height="50" rx="8" fill="#ffe6cc" stroke="#d79b00" stroke-width="1.5"/>
<text x="605" y="308.5" text-anchor="middle" font-size="12" fill="#222">WEB02</text>
<text x="605" y="323.5" text-anchor="middle" font-size="12" fill="#222">10.10.40.12</text>
<rect x="380" y="380" width="210" height="50" rx="8" fill="#dae8fc" stroke="#6c8ebf" stroke-width="1.5"/>
<text x="485" y="403.5" text-anchor="middle" font-size="12" fill="#222">Listener SQL</text>
<text x="485" y="418.5" text-anchor="middle" font-size="12" fill="#222">10.10.10.20 (1433)</text>
<rect x="300" y="470" width="130" height="50" rx="8" fill="#dae8fc" stroke="#6c8ebf" stroke-width="1.5"/>
<text x="365" y="493.5" text-anchor="middle" font-size="12" fill="#222">SQL01</text>
<text x="365" y="508.5" text-anchor="middle" font-size="12" fill="#222">10.10.10.21</text>
<rect x="540" y="470" width="130" height="50" rx="8" fill="#dae8fc" stroke="#6c8ebf" stroke-width="1.5"/>
<text x="605" y="493.5" text-anchor="middle" font-size="12" fill="#222">SQL02</text>
<text x="605" y="508.5" text-anchor="middle" font-size="12" fill="#222">10.10.10.22</text>
<rect x="720" y="380" width="210" height="55" rx="8" fill="#dae8fc" stroke="#6c8ebf" stroke-width="1.5"/>
<text x="825" y="406" text-anchor="middle" font-size="12" fill="#222">DC1 / DC2 (AD DS + DNS)</text>
<text x="825" y="421" text-anchor="middle" font-size="12" fill="#222">10.10.10.11-12</text>
<rect x="60" y="470" width="150" height="50" rx="8" fill="#dae8fc" stroke="#6c8ebf" stroke-width="1.5"/>
<text x="135" y="493.5" text-anchor="middle" font-size="12" fill="#222">BKP01 - Backup</text>
<text x="135" y="508.5" text-anchor="middle" font-size="12" fill="#222">10.10.10.31</text>
<rect x="60" y="285" width="190" height="55" rx="8" fill="#d5e8d4" stroke="#82b366" stroke-width="1.5"/>
<text x="155" y="311" text-anchor="middle" font-size="12" fill="#222">Administracion / DevOps</text>
<text x="155" y="326" text-anchor="middle" font-size="12" fill="#222">(VLAN 30 / VPN)</text>
<line x1="190" y1="99.5486" x2="410" y2="98.0208" stroke="#333333" stroke-width="1.6" marker-end="url(#arr)"/>
<rect x="268.5" y="87.7847" width="63" height="16" fill="white" stroke="none" opacity="0.9"/>
<text x="300" y="98.7847" text-anchor="middle" font-size="11" fill="#333333">HTTPS 443</text>
<line x1="790" y1="99.5333" x2="560" y2="98" stroke="#333333" stroke-width="1.6" marker-end="url(#arr)"/>
<rect x="643.5" y="87.7667" width="63" height="16" fill="white" stroke="none" opacity="0.9"/>
<text x="675" y="98.7667" text-anchor="middle" font-size="11" fill="#333333">HTTPS 443</text>
<line x1="485" y1="125" x2="485" y2="175" stroke="#333333" stroke-width="1.6" marker-end="url(#arr)"/>
<rect x="474.5" y="139" width="21" height="16" fill="white" stroke="none" opacity="0.9"/>
<text x="485" y="150" text-anchor="middle" font-size="11" fill="#333333">443</text>
<line x1="454.302" y1="230" x2="392.907" y2="285" stroke="#333333" stroke-width="1.6" marker-end="url(#arr)"/>
<rect x="413.105" y="246.5" width="21" height="16" fill="white" stroke="none" opacity="0.9"/>
<text x="423.605" y="257.5" text-anchor="middle" font-size="11" fill="#333333">443</text>
<line x1="515.698" y1="230" x2="577.093" y2="285" stroke="#333333" stroke-width="1.6" marker-end="url(#arr)"/>
<rect x="535.895" y="246.5" width="21" height="16" fill="white" stroke="none" opacity="0.9"/>
<text x="546.395" y="257.5" text-anchor="middle" font-size="11" fill="#333333">443</text>
<line x1="396.579" y1="335" x2="453.421" y2="380" stroke="#333333" stroke-width="1.6" marker-end="url(#arr)"/>
<rect x="411" y="346.5" width="28" height="16" fill="white" stroke="none" opacity="0.9"/>
<text x="425" y="357.5" text-anchor="middle" font-size="11" fill="#333333">1433</text>
<line x1="573.421" y1="335" x2="516.579" y2="380" stroke="#333333" stroke-width="1.6" marker-end="url(#arr)"/>
<rect x="531" y="346.5" width="28" height="16" fill="white" stroke="none" opacity="0.9"/>
<text x="545" y="357.5" text-anchor="middle" font-size="11" fill="#333333">1433</text>
<line x1="451.667" y1="430" x2="398.333" y2="470" stroke="#333333" stroke-width="1.6" marker-end="url(#arr)"/>
<line x1="518.333" y1="430" x2="571.667" y2="470" stroke="#333333" stroke-width="1.6" marker-end="url(#arr)"/>
<line x1="430" y1="495" x2="540" y2="495" stroke="#333333" stroke-width="1.6" marker-end="url(#arr)"/>
<line x1="540" y1="495" x2="430" y2="495" stroke="#333333" stroke-width="1.6" marker-end="url(#arr)"/>
<rect x="460.5" y="484" width="49" height="16" fill="white" stroke="none" opacity="0.9"/>
<text x="485" y="495" text-anchor="middle" font-size="11" fill="#333333">AG 5022</text>
<line x1="661.41" y1="335" x2="762.949" y2="380" stroke="#333333" stroke-width="1.6" marker-end="url(#arr)"/>
<rect x="680.679" y="346.5" width="63" height="16" fill="white" stroke="none" opacity="0.9"/>
<text x="712.179" y="357.5" text-anchor="middle" font-size="11" fill="#333333">636/88/53</text>
<line x1="300" y1="495" x2="210" y2="495" stroke="#333333" stroke-width="1.6" marker-end="url(#arr)"/>
<rect x="230.5" y="484" width="49" height="16" fill="white" stroke="none" opacity="0.9"/>
<text x="255" y="495" text-anchor="middle" font-size="11" fill="#333333">SMB 445</text>
<line x1="250" y1="311.369" x2="300" y2="310.774" stroke="#b85450" stroke-width="1.6" marker-end="url(#arr)" stroke-dasharray="6 4"/>
<rect x="243.5" y="300.071" width="63" height="16" fill="white" stroke="none" opacity="0.9"/>
<text x="275" y="311.071" text-anchor="middle" font-size="11" fill="#b85450">3389/5985</text>
</svg>