<?xml version="1.0" encoding="UTF-8"?>
<svg xmlns="http://www.w3.org/2000/svg" width="820" height="640" viewBox="0 0 820 640" font-family="Helvetica, Arial, sans-serif">
<defs><marker id="arr" markerWidth="10" markerHeight="10" refX="8" refY="3" orient="auto" markerUnits="strokeWidth"><path d="M0,0 L8,3 L0,6 z" fill="#333333"/></marker></defs>
<rect x="0" y="0" width="820" height="640" fill="white"/>
<text x="410" y="28" text-anchor="middle" font-size="16" font-weight="bold" fill="#222">Apartado 11.2 - Diagrama de componentes</text>
<rect x="300" y="40" width="230" height="50" rx="8" fill="#f5f5f5" stroke="#666666" stroke-width="1.5"/>
<text x="415" y="71" text-anchor="middle" font-size="12" fill="#222">Navegador del usuario</text>
<rect x="290" y="130" width="250" height="50" rx="8" fill="#ffe6cc" stroke="#d79b00" stroke-width="1.5"/>
<text x="415" y="161" text-anchor="middle" font-size="12" fill="#222">Balanceador / Proxy inverso</text>
<rect x="280" y="225" width="270" height="60" rx="8" fill="#ffe6cc" stroke="#d79b00" stroke-width="1.5"/>
<text x="415" y="253.5" text-anchor="middle" font-size="12" fill="#222">Servidor web / aplicacion (x2)</text>
<text x="415" y="268.5" text-anchor="middle" font-size="12" fill="#222">IIS - intranet de incidencias</text>
<rect x="290" y="330" width="250" height="50" rx="8" fill="#dae8fc" stroke="#6c8ebf" stroke-width="1.5"/>
<text x="415" y="361" text-anchor="middle" font-size="12" fill="#222">Acceso a datos (Listener SQL)</text>
<rect x="290" y="425" width="250" height="60" rx="8" fill="#dae8fc" stroke="#6c8ebf" stroke-width="1.5"/>
<text x="415" y="453.5" text-anchor="middle" font-size="12" fill="#222">Base de datos SQL Server</text>
<text x="415" y="468.5" text-anchor="middle" font-size="12" fill="#222">(esquema E-R, TDE)</text>
<rect x="600" y="225" width="180" height="60" rx="8" fill="#d5e8d4" stroke="#82b366" stroke-width="1.5"/>
<text x="690" y="253.5" text-anchor="middle" font-size="12" fill="#222">Active Directory</text>
<text x="690" y="268.5" text-anchor="middle" font-size="12" fill="#222">/ DNS</text>
<rect x="600" y="425" width="180" height="60" rx="8" fill="#dae8fc" stroke="#6c8ebf" stroke-width="1.5"/>
<text x="690" y="453.5" text-anchor="middle" font-size="12" fill="#222">Copias 3-2-1</text>
<text x="690" y="468.5" text-anchor="middle" font-size="12" fill="#222">+ cifrado AES-256</text>
<rect x="40" y="225" width="180" height="60" rx="8" fill="#e1d5e7" stroke="#9673a6" stroke-width="1.5"/>
<text x="130" y="253.5" text-anchor="middle" font-size="12" fill="#222">Monitorizacion</text>
<text x="130" y="268.5" text-anchor="middle" font-size="12" fill="#222">(metricas y logs)</text>
<line x1="415" y1="90" x2="415" y2="130" stroke="#333333" stroke-width="1.6" marker-end="url(#arr)"/>
<rect x="383.5" y="99" width="63" height="16" fill="white" stroke="none" opacity="0.9"/>
<text x="415" y="110" text-anchor="middle" font-size="11" fill="#333333">HTTPS 443</text>
<line x1="415" y1="180" x2="415" y2="225" stroke="#333333" stroke-width="1.6" marker-end="url(#arr)"/>
<rect x="380" y="191.5" width="70" height="16" fill="white" stroke="none" opacity="0.9"/>
<text x="415" y="202.5" text-anchor="middle" font-size="11" fill="#333333">HTTP/HTTPS</text>
<line x1="415" y1="285" x2="415" y2="330" stroke="#333333" stroke-width="1.6" marker-end="url(#arr)"/>
<rect x="401" y="296.5" width="28" height="16" fill="white" stroke="none" opacity="0.9"/>
<text x="415" y="307.5" text-anchor="middle" font-size="11" fill="#333333">1433</text>
<line x1="415" y1="380" x2="415" y2="425" stroke="#333333" stroke-width="1.6" marker-end="url(#arr)"/>
<line x1="550" y1="255" x2="600" y2="255" stroke="#333333" stroke-width="1.6" marker-end="url(#arr)"/>
<rect x="543.5" y="244" width="63" height="16" fill="white" stroke="none" opacity="0.9"/>
<text x="575" y="255" text-anchor="middle" font-size="11" fill="#333333">LDAPS 636</text>
<line x1="540" y1="455" x2="600" y2="455" stroke="#333333" stroke-width="1.6" marker-end="url(#arr)"/>
<rect x="535" y="444" width="70" height="16" fill="white" stroke="none" opacity="0.9"/>
<text x="570" y="455" text-anchor="middle" font-size="11" fill="#333333">backup 445</text>
<line x1="220" y1="255" x2="280" y2="255" stroke="#333333" stroke-width="1.6" marker-end="url(#arr)"/>
<rect x="218.5" y="244" width="63" height="16" fill="white" stroke="none" opacity="0.9"/>
<text x="250" y="255" text-anchor="middle" font-size="11" fill="#333333">supervisa</text>
</svg>