<?xml version="1.0" encoding="UTF-8"?>
<svg xmlns="http://www.w3.org/2000/svg" width="1120" height="640" viewBox="0 0 1120 640" font-family="Helvetica, Arial, sans-serif">
<defs><marker id="arr" markerWidth="10" markerHeight="10" refX="8" refY="3" orient="auto" markerUnits="strokeWidth"><path d="M0,0 L8,3 L0,6 z" fill="#333333"/></marker></defs>
<rect x="0" y="0" width="1120" height="640" fill="white"/>
<text x="560" y="28" text-anchor="middle" font-size="16" font-weight="bold" fill="#222">Apartado 11.3 - Diagrama de red (VLANs, IPs y puertos)</text>
<ellipse cx="560" cy="65" rx="60" ry="25" fill="#f8cecc" stroke="#b85450" stroke-width="1.5"/>
<text x="560" y="71" text-anchor="middle" font-size="12" fill="#222">Internet</text>
<rect x="470" y="110" width="180" height="45" rx="8" fill="#f8cecc" stroke="#b85450" stroke-width="1.5"/>
<text x="560" y="138.5" text-anchor="middle" font-size="12" fill="#222">FW01 - Firewall + VPN</text>
<rect x="400" y="175" width="320" height="40" rx="8" fill="#f5f5f5" stroke="#666666" stroke-width="1.5"/>
<text x="560" y="201" text-anchor="middle" font-size="12" fill="#222">Switch L3 - enrutamiento inter-VLAN</text>
<rect x="30" y="250" width="250" height="230" rx="0" fill="none" stroke="#d79b00" stroke-width="1.5" stroke-dasharray="6 4"/>
<text x="155" y="268" text-anchor="middle" font-size="12" font-weight="bold" fill="#333">VLAN 40 - DMZ  10.10.40.0/24</text>
<rect x="300" y="250" width="190" height="230" rx="0" fill="none" stroke="#666666" stroke-width="1.5" stroke-dasharray="6 4"/>
<text x="395" y="268" text-anchor="middle" font-size="12" font-weight="bold" fill="#333">VLAN 20 - Usuarios  10.10.20.0/24</text>
<rect x="510" y="250" width="350" height="230" rx="0" fill="none" stroke="#6c8ebf" stroke-width="1.5" stroke-dasharray="6 4"/>
<text x="685" y="268" text-anchor="middle" font-size="12" font-weight="bold" fill="#333">VLAN 10 - Backend  10.10.10.0/24</text>
<rect x="880" y="250" width="210" height="230" rx="0" fill="none" stroke="#82b366" stroke-width="1.5" stroke-dasharray="6 4"/>
<text x="985" y="268" text-anchor="middle" font-size="12" font-weight="bold" fill="#333">VLAN 30 - Gestion  10.10.30.0/24</text>
<rect x="55" y="300" width="200" height="50" rx="8" fill="#ffe6cc" stroke="#d79b00" stroke-width="1.5"/>
<text x="155" y="323.5" text-anchor="middle" font-size="12" fill="#222">LB01  10.10.40.10</text>
<text x="155" y="338.5" text-anchor="middle" font-size="12" fill="#222">(VIP 10.10.40.5)</text>
<rect x="55" y="365" width="95" height="45" rx="8" fill="#ffe6cc" stroke="#d79b00" stroke-width="1.5"/>
<text x="102.5" y="386" text-anchor="middle" font-size="12" fill="#222">WEB01</text>
<text x="102.5" y="401" text-anchor="middle" font-size="12" fill="#222">10.10.40.11</text>
<rect x="160" y="365" width="95" height="45" rx="8" fill="#ffe6cc" stroke="#d79b00" stroke-width="1.5"/>
<text x="207.5" y="386" text-anchor="middle" font-size="12" fill="#222">WEB02</text>
<text x="207.5" y="401" text-anchor="middle" font-size="12" fill="#222">10.10.40.12</text>
<rect x="325" y="320" width="140" height="60" rx="8" fill="#f5f5f5" stroke="#666666" stroke-width="1.5"/>
<text x="395" y="348.5" text-anchor="middle" font-size="12" fill="#222">PCs usuarios</text>
<text x="395" y="363.5" text-anchor="middle" font-size="12" fill="#222">(DHCP)</text>
<rect x="530" y="300" width="95" height="42" rx="8" fill="#dae8fc" stroke="#6c8ebf" stroke-width="1.5"/>
<text x="577.5" y="319.5" text-anchor="middle" font-size="12" fill="#222">DC1</text>
<text x="577.5" y="334.5" text-anchor="middle" font-size="12" fill="#222">10.10.10.11</text>
<rect x="635" y="300" width="95" height="42" rx="8" fill="#dae8fc" stroke="#6c8ebf" stroke-width="1.5"/>
<text x="682.5" y="319.5" text-anchor="middle" font-size="12" fill="#222">DC2</text>
<text x="682.5" y="334.5" text-anchor="middle" font-size="12" fill="#222">10.10.10.12</text>
<rect x="530" y="352" width="95" height="42" rx="8" fill="#dae8fc" stroke="#6c8ebf" stroke-width="1.5"/>
<text x="577.5" y="371.5" text-anchor="middle" font-size="12" fill="#222">SQL01</text>
<text x="577.5" y="386.5" text-anchor="middle" font-size="12" fill="#222">10.10.10.21</text>
<rect x="635" y="352" width="95" height="42" rx="8" fill="#dae8fc" stroke="#6c8ebf" stroke-width="1.5"/>
<text x="682.5" y="371.5" text-anchor="middle" font-size="12" fill="#222">SQL02</text>
<text x="682.5" y="386.5" text-anchor="middle" font-size="12" fill="#222">10.10.10.22</text>
<rect x="530" y="404" width="200" height="38" rx="8" fill="#dae8fc" stroke="#6c8ebf" stroke-width="1.5"/>
<text x="630" y="429" text-anchor="middle" font-size="12" font-weight="bold" fill="#222">Listener 10.10.10.20 (1433)</text>
<rect x="745" y="352" width="100" height="42" rx="8" fill="#dae8fc" stroke="#6c8ebf" stroke-width="1.5"/>
<text x="795" y="371.5" text-anchor="middle" font-size="12" fill="#222">BKP01</text>
<text x="795" y="386.5" text-anchor="middle" font-size="12" fill="#222">10.10.10.31</text>
<rect x="905" y="310" width="160" height="60" rx="8" fill="#d5e8d4" stroke="#82b366" stroke-width="1.5"/>
<text x="985" y="338.5" text-anchor="middle" font-size="12" fill="#222">Admin / DevOps</text>
<text x="985" y="353.5" text-anchor="middle" font-size="12" fill="#222">+ VPN tecnicos</text>
<rect x="300" y="510" width="520" height="34" rx="8" fill="#fff2cc" stroke="#d6b656" stroke-width="1.5"/>
<text x="560" y="533" text-anchor="middle" font-size="12" fill="#222">VLAN 99 - WiFi invitados  10.10.99.0/24  (aislada, solo salida a Internet)</text>
<line x1="560" y1="90" x2="560" y2="110" stroke="#333333" stroke-width="1.6" marker-end="url(#arr)"/>
<line x1="560" y1="155" x2="560" y2="175" stroke="#333333" stroke-width="1.6" marker-end="url(#arr)"/>
<line x1="497.692" y1="215" x2="232.885" y2="300" stroke="#333333" stroke-width="1.6" marker-end="url(#arr)"/>
<rect x="354.788" y="246.5" width="21" height="16" fill="white" stroke="none" opacity="0.9"/>
<text x="365.288" y="257.5" text-anchor="middle" font-size="11" fill="#333333">443</text>
<line x1="325" y1="342.708" x2="255" y2="335.417" stroke="#333333" stroke-width="1.6" marker-end="url(#arr)"/>
<rect x="279.5" y="328.062" width="21" height="16" fill="white" stroke="none" opacity="0.9"/>
<text x="290" y="339.062" text-anchor="middle" font-size="11" fill="#333333">443</text>
<line x1="134" y1="350" x2="121.4" y2="365" stroke="#333333" stroke-width="1.6" marker-end="url(#arr)"/>
<rect x="117.2" y="346.5" width="21" height="16" fill="white" stroke="none" opacity="0.9"/>
<text x="127.7" y="357.5" text-anchor="middle" font-size="11" fill="#333333">443</text>
<line x1="176" y1="350" x2="188.6" y2="365" stroke="#333333" stroke-width="1.6" marker-end="url(#arr)"/>
<rect x="171.8" y="346.5" width="21" height="16" fill="white" stroke="none" opacity="0.9"/>
<text x="182.3" y="357.5" text-anchor="middle" font-size="11" fill="#333333">443</text>
<line x1="255" y1="391.491" x2="530" y2="414.598" stroke="#333333" stroke-width="1.6" marker-end="url(#arr)"/>
<rect x="378.5" y="392.044" width="28" height="16" fill="white" stroke="none" opacity="0.9"/>
<text x="392.5" y="403.044" text-anchor="middle" font-size="11" fill="#333333">1433</text>
<line x1="255" y1="380.85" x2="635" y2="327.65" stroke="#333333" stroke-width="1.6" marker-end="url(#arr)"/>
<rect x="413.5" y="343.25" width="63" height="16" fill="white" stroke="none" opacity="0.9"/>
<text x="445" y="354.25" text-anchor="middle" font-size="11" fill="#333333">636/88/53</text>
<line x1="625" y1="373" x2="635" y2="373" stroke="#333333" stroke-width="1.6" marker-end="url(#arr)"/>
<line x1="635" y1="373" x2="625" y2="373" stroke="#333333" stroke-width="1.6" marker-end="url(#arr)"/>
<rect x="616" y="362" width="28" height="16" fill="white" stroke="none" opacity="0.9"/>
<text x="630" y="373" text-anchor="middle" font-size="11" fill="#333333">5022</text>
<line x1="625" y1="373" x2="745" y2="373" stroke="#333333" stroke-width="1.6" marker-end="url(#arr)"/>
<rect x="674.5" y="362" width="21" height="16" fill="white" stroke="none" opacity="0.9"/>
<text x="685" y="373" text-anchor="middle" font-size="11" fill="#333333">445</text>
<line x1="905" y1="336.27" x2="625" y2="323.215" stroke="#b85450" stroke-width="1.6" marker-end="url(#arr)" stroke-dasharray="6 4"/>
<rect x="733.5" y="318.742" width="63" height="16" fill="white" stroke="none" opacity="0.9"/>
<text x="765" y="329.742" text-anchor="middle" font-size="11" fill="#b85450">3389/5985</text>
</svg>